<?xml version="1.0" encoding="utf-8"?>
<!-- Uploaded to: SVG Repo, www.svgrepo.com, Generator: SVG Repo Mixer Tools -->
<svg fill="#000000" width="800px" height="800px" viewBox="-8.5 0 32 32" version="1.1" xmlns="http://www.w3.org/2000/svg">
<title>arrows-alt</title>
<path d="M13.76 18.48v0c-0.48 0-0.84 0.36-0.84 0.84v1.12l-4.4-4.4 4.4-4.4v1.12c0 0.48 0.36 0.84 0.84 0.84s0.84-0.36 0.84-0.84v-3.16c0-0.48-0.36-0.84-0.88-0.84v0h-3.16c-0.48 0-0.84 0.36-0.84 0.84s0.36 0.84 0.84 0.84h1.12l-4.4 4.4-4.4-4.4h1.16c0.48 0 0.84-0.36 0.84-0.84s-0.36-0.84-0.84-0.84h-3.16c-0.52 0-0.88 0.4-0.88 0.88v3.16c0 0.48 0.36 0.8 0.84 0.8v0c0.48 0 0.84-0.36 0.84-0.84v-1.12l4.4 4.4-4.4 4.4v-1.12c0-0.48-0.36-0.84-0.84-0.84-0.44-0.040-0.8 0.32-0.8 0.8v3.16c0 0.44 0.24 0.8 0.84 0.8h3.16c0.48 0 0.84-0.36 0.84-0.84s-0.36-0.8-0.84-0.8h-1.12l4.4-4.4 4.4 4.4h-1.12c-0.48 0-0.84 0.36-0.84 0.84s0.36 0.84 0.84 0.84h3.16c0.56 0 0.88-0.32 0.88-0.8v0-3.16c-0.040-0.48-0.44-0.84-0.88-0.84z"></path>
</svg>