<?xml version="1.0" encoding="utf-8"?>
<!-- Uploaded to: SVG Repo, www.svgrepo.com, Generator: SVG Repo Mixer Tools -->
<svg fill="#000000" width="800px" height="800px" viewBox="-5.5 0 32 32" version="1.1" xmlns="http://www.w3.org/2000/svg">
<title>info-alt</title>
<path d="M10.44 26.44c-5.76 0-10.44-4.68-10.44-10.44s4.68-10.44 10.44-10.44c5.76 0 10.44 4.68 10.44 10.44s-4.68 10.44-10.44 10.44zM10.44 7.28c-4.84 0-8.72 3.92-8.72 8.72s3.88 8.72 8.72 8.72 8.72-3.92 8.72-8.72-3.92-8.72-8.72-8.72zM10.44 14.16c-1.24 0-2.2-1-2.2-2.2s1-2.2 2.2-2.2c1.24 0 2.2 1 2.2 2.2s-1 2.2-2.2 2.2zM10.44 11.44c-0.28 0-0.52 0.24-0.52 0.52s0.24 0.52 0.52 0.52c0.28 0 0.52-0.24 0.52-0.52s-0.24-0.52-0.52-0.52zM11.28 21.4v-5.040c0-0.48-0.4-0.84-0.84-0.84s-0.84 0.4-0.84 0.84v5.080c0 0.48 0.4 0.84 0.84 0.84s0.84-0.4 0.84-0.88z"></path>
</svg>